# xmcd CD database file
#
# Track frame offsets:
#	150
#	19364
#	34996
#	54586
#	70248
#	87657
#	105351
#	122357
#	142475
#	157532
#	172441
#	187077
#
# Disc length: 2727 seconds
#
# Revision: 0
# Processed by: cddbd v1.5.2PL0 Copyright (c) Steve Scherf et al.
# Submitted via: CDex 1.60beta1
#
DISCID=ae0aa50c
DTITLE=celanous - come&go
DYEAR=1900
DGENRE=Jazz
TTITLE0=Autumn Nights
TTITLE1=Passing By
TTITLE2=Zu lang
TTITLE3=Warten
TTITLE4=People(come and go)
TTITLE5=Samt
TTITLE6=You Me
TTITLE7=June
TTITLE8=Dein eigenes Ich
TTITLE9=Heute Leben
TTITLE10=Little Poem
TTITLE11=Summer(little moment)
EXTD=
EXTT0=
EXTT1=
EXTT2=
EXTT3=
EXTT4=
EXTT5=
EXTT6=
EXTT7=
EXTT8=
EXTT9=
EXTT10=
EXTT11=
PLAYORDER=
